<svg xmlns="http://www.w3.org/2000/svg" width="16" height="16"><path d="M15.838 6.4A8 8 0 000 8.014a8.058 8.058 0 00.162 1.612 7.971 7.971 0 001.2 2.863 8.009 8.009 0 002.16 2.159 8 8 0 0010.131-.976 8.077 8.077 0 00.976-1.184A8.015 8.015 0 0015.838 6.4zM14.83 7.947a15.819 15.819 0 00-4.759-.224c-.048-.117-.1-.234-.147-.353-.142-.334-.295-.67-.454-.991a8.789 8.789 0 003.807-2.7 6.8 6.8 0 011.553 4.268zm-2.317-5.059a7.44 7.44 0 01-3.569 2.473A34.609 34.609 0 006.39 1.375a6.82 6.82 0 016.123 1.513zM6.364 1.381h-.02zm-1.279.455a41.14 41.14 0 012.537 3.936 25.247 25.247 0 01-6.308.834 6.842 6.842 0 013.771-4.77zM1.168 8.014c0-.073 0-.144.006-.216a25.052 25.052 0 007.014-.973c.2.383.383.772.554 1.16a8.34 8.34 0 00-.269.082 10.808 10.808 0 00-5.557 4.509 6.811 6.811 0 01-1.748-4.562zM8 14.847a6.8 6.8 0 01-4.352-1.566c.09.073.152.119.152.119a9.255 9.255 0 015.363-4.267l.045-.014a28.416 28.416 0 011.46 5.188 6.807 6.807 0 01-2.668.54zm3.817-1.165a29.506 29.506 0 00-1.33-4.88 9.9 9.9 0 014.258.3 6.836 6.836 0 01-2.927 4.58z" fill="#95e1d3" fill-rule="evenodd"/></svg>