<svg xmlns="http://www.w3.org/2000/svg" width="16" height="13.75"><path data-name="google plus" d="M13.5 3.467v2.44h-1v-2.44H10v-1h2.5V.029h1v2.44H16v1h-2.5zM6.585.996a2.56 2.56 0 011.408 2.331 2.709 2.709 0 01-1.239 2.1 1.361 1.361 0 00-.81 1.186 2.716 2.716 0 001.111 1.291A2.849 2.849 0 018.5 10.597c0 1.5-1.444 3.169-4.116 3.169C2.039 13.766 0 12.65 0 11.15c0-1.52 1.866-2.987 4.209-2.987.255 0 .489-.011.731-.011A1.611 1.611 0 014.367 7a1.716 1.716 0 01.213-.785c-.127.009-.257-.012-.391-.012A3.061 3.061 0 01.975 3.15C.975 1.519 2.756.018 4.648.018h4.22l-.944.983H6.585zM4.656 8.55c-1.62-.017-3.071.97-3.071 2.156 0 1.209 1.17 2.094 2.79 2.094 2.277 0 3.071-.822 3.071-2.032a1.833 1.833 0 00-.052-.428c-.179-.69-.809-1.025-1.689-1.625a3.6 3.6 0 00-1.049-.165zm1.82-5.2A2.819 2.819 0 004.12.787C3.033.755 2.3 1.828 2.492 3.23A2.821 2.821 0 004.8 5.827c1.087.032 1.863-1.077 1.676-2.477z" fill="#95e1d3" fill-rule="evenodd"/></svg>