<svg xmlns="http://www.w3.org/2000/svg" width="16" height="16"><path d="M14 16.015H2a2 2 0 01-2-2v-12a2 2 0 012-2h12a2 2 0 012 2v12a2 2 0 01-2 2zm-6-11.1a3.1 3.1 0 00-2.811 1.8l-.014.035a3.471 3.471 0 00-.08.2c-.012.032-.025.064-.036.1A1.231 1.231 0 005 7.26l-.026.1a2.98 2.98 0 00-.038.23c0 .031-.011.062-.014.094a3.139 3.139 0 00-.018.331 3.1 3.1 0 106.182-.331c0-.032-.01-.063-.014-.094-.011-.077-.022-.154-.038-.23L11 7.26a3.678 3.678 0 00-.059-.212l-.036-.1a2.53 2.53 0 00-.081-.2c0-.011-.008-.023-.014-.035A3.1 3.1 0 008 4.915zm6.2-2.3a.8.8 0 00-.8-.8h-1.6a.8.8 0 00-.8.8v1.6a.8.8 0 00.8.8h1.6a.8.8 0 00.8-.8v-1.6zm0 4.1h-1.475a4.9 4.9 0 11-9.451 0H1.8v6.7a.8.8 0 00.8.8h10.8a.8.8 0 00.8-.8v-6.7z" fill="#95e1d3" fill-rule="evenodd"/></svg>