<svg xmlns="http://www.w3.org/2000/svg" width="19.438" height="11.25"><path d="M19.429 5.651v.075a.752.752 0 01-.2.409c-.2.247-.427.479-.651.707a16.8 16.8 0 01-4.123 3.123 11.017 11.017 0 01-3.089 1.116 8.967 8.967 0 01-3.55-.05 13.4 13.4 0 01-5.515-2.856A14.956 14.956 0 01.193 6.138a.776.776 0 010-1.048c.2-.247.427-.48.651-.708A16.809 16.809 0 014.967 1.26 11.011 11.011 0 018.056.144a8.978 8.978 0 013.55.051 13.394 13.394 0 015.5 2.863 14.933 14.933 0 012.113 2.032.751.751 0 01.2.409v.114c0 .013.01.026.01.038zM9.71 1.817a3.645 3.645 0 103.645 3.645A3.645 3.645 0 009.71 1.817zm0 5.467a1.822 1.822 0 111.822-1.822A1.822 1.822 0 019.71 7.284z" fill="#95e1d3" fill-rule="evenodd"/></svg>