<svg xmlns="http://www.w3.org/2000/svg" width="16" height="14.25"><path data-name="SPEECH BUBBLE 2" d="M8.416 12.233a11.689 11.689 0 01-1.676-.244 6.373 6.373 0 01-5.647 2.226c2.441-1.155 2.392-3.069 1.958-3.324A5.611 5.611 0 01-.018 6.13c0-3.391 3.727-6.14 8.435-6.14s7.577 2.749 7.577 6.14-2.87 6.103-7.578 6.103zM4.242 4.75a1.5 1.5 0 101.5 1.5 1.5 1.5 0 00-1.5-1.5zm3.75 0a1.5 1.5 0 101.5 1.5 1.5 1.5 0 00-1.5-1.5zm3.75 0a1.5 1.5 0 101.5 1.5 1.5 1.5 0 00-1.5-1.5z" fill="#95e1d3" fill-rule="evenodd"/></svg>