<svg xmlns="http://www.w3.org/2000/svg" width="12.25" height="15.969"><path d="M5.094 10.393c-.131.521-.262 1.066-.4 1.6a12.187 12.187 0 01-.444 1.543 7.9 7.9 0 01-1.277 2.2c-.359.417-.283.25-.391.228-.083-.017-.09-.1-.106-.215a12.059 12.059 0 010-2.087 11.294 11.294 0 01.368-2.17c.3-1.29.592-2.554.9-3.852a.863.863 0 00.056-.278 4.014 4.014 0 01-.268-1.063 3.381 3.381 0 01.087-1.215 2 2 0 011.183-1.459 1.357 1.357 0 011.084.082 1.177 1.177 0 01.542.778 2.806 2.806 0 01-.05 1.184c-.167.761-.386 1.333-.586 2.068a2.275 2.275 0 00-.118 1.132 1.316 1.316 0 00.53.8 1.546 1.546 0 001.015.285 2.221 2.221 0 001.657-.985A5.794 5.794 0 009.923 6.04a7.206 7.206 0 00.043-1.259 3.426 3.426 0 00-.7-1.948 3.3 3.3 0 00-1.574-1.064A5.2 5.2 0 005.35 1.62a4.148 4.148 0 00-3.072 2.207 4.427 4.427 0 00-.528 2.131 2.765 2.765 0 00.424 1.562c.083.126.205.229.287.374a1.08 1.08 0 01-.075.727c-.069.266-.076.633-.386.639a.94.94 0 01-.4-.152A3.2 3.2 0 01.092 6.775a5.587 5.587 0 010-2.025A5.757 5.757 0 012.839.911 6.529 6.529 0 015.281.069c.318-.046.646-.066 1-.083a6.027 6.027 0 012.7.507 5.533 5.533 0 011.869 1.341 5.077 5.077 0 011.146 2.069 4.98 4.98 0 01.254 1.43 8.578 8.578 0 01-.192 1.48 5.83 5.83 0 01-2.4 4.036 4.141 4.141 0 01-1.1.506 4.007 4.007 0 01-1.4.176 2.88 2.88 0 01-1.24-.36 2.054 2.054 0 01-.824-.778z" fill="#95e1d3" fill-rule="evenodd"/></svg>