<svg xmlns="http://www.w3.org/2000/svg" width="10" height="16"><path d="M10.009 15.145a9.551 9.551 0 01-1.849.678 7.8 7.8 0 01-1.79.195 4.87 4.87 0 01-1.717-.276 4.173 4.173 0 01-1.431-.79A2.881 2.881 0 012.4 13.86a4.76 4.76 0 01-.229-1.677V6.569H.007V4.3a5.616 5.616 0 001.8-.879 4.366 4.366 0 001.071-1.373 6.2 6.2 0 00.558-2.04H5.7v3.7h3.683v2.861H5.7v4.1a7.019 7.019 0 00.087 1.731 1.476 1.476 0 00.607.691 2.3 2.3 0 001.209.319 4.339 4.339 0 002.406-.79v2.525z" fill="#95e1d3" fill-rule="evenodd"/></svg>