<svg xmlns="http://www.w3.org/2000/svg" width="16" height="13"><path d="M10.883.016a3.376 3.376 0 012.595 1.03 5.317 5.317 0 001.681-.567l.408-.224A3.281 3.281 0 0114.5 1.8a1.552 1.552 0 01-.36.256v.003A6.159 6.159 0 0016 1.557v.008a5.293 5.293 0 01-1.113 1.277l-.512.407a9.4 9.4 0 01-.152 2.108 9.176 9.176 0 01-6.43 7.258 9.822 9.822 0 01-4.645.192 11.986 11.986 0 01-1.93-.631 7.692 7.692 0 01-.93-.476L0 11.52a5.351 5.351 0 001.049.04c.323-.052.639-.038.937-.1a6.708 6.708 0 001.97-.71 3.657 3.657 0 00.889-.582 2.8 2.8 0 01-.977-.176 3.3 3.3 0 01-2.082-2.1 3.258 3.258 0 001.466-.064 2.4 2.4 0 01-1.073-.432A3.158 3.158 0 01.633 4.582l.336.16a3.606 3.606 0 00.689.192.982.982 0 00.448.039H2.09c-.165-.192-.435-.32-.6-.526a3.355 3.355 0 01-.737-2.978 3.818 3.818 0 01.352-.854l.016.008a2.016 2.016 0 00.3.343 6 6 0 00.977.934 9.669 9.669 0 004.008 1.94 6.313 6.313 0 001.473.191 3.05 3.05 0 01.021-1.54A3.236 3.236 0 019.754.287a3.965 3.965 0 01.728-.223z" fill="#95e1d3" fill-rule="evenodd"/></svg>