<svg xmlns="http://www.w3.org/2000/svg" width="16" height="14.25" viewBox="0 0 16 14.25">
  <defs>
    <style>
      .cls-1 {
        fill: #95e1d3;
        fill-rule: evenodd;
      }
    </style>
  </defs>
  <path id="SPEECH_BUBBLE_2" data-name="SPEECH BUBBLE 2" class="cls-1" d="M8.416,12.358a11.689,11.689,0,0,1-1.676-.244A6.373,6.373,0,0,1,1.093,14.34c2.441-1.155,2.392-3.069,1.958-3.324A5.611,5.611,0,0,1-.018,6.255c0-3.391,3.727-6.14,8.435-6.14s7.577,2.749,7.577,6.14S13.124,12.358,8.416,12.358ZM4.242,4.875a1.5,1.5,0,1,0,1.5,1.5A1.5,1.5,0,0,0,4.242,4.875Zm3.75,0a1.5,1.5,0,1,0,1.5,1.5A1.5,1.5,0,0,0,7.992,4.875Zm3.75,0a1.5,1.5,0,1,0,1.5,1.5A1.5,1.5,0,0,0,11.742,4.875Z" transform="translate(0 -0.125)"/>
</svg>
